<?xml version="1.0" encoding="utf-8"?><svg xmlns="http://www.w3.org/2000/svg"><symbol viewBox="0 0 24 24" id="align-left"><path d="M6 10L14 10M6 6L18 6M6 14L18 14M6 18L14 18"/></symbol><symbol viewBox="0 0 24 24" id="home-alt"><path d="M3 10.182V22h18V10.182L12 2z"/><rect width="6" height="8" x="9" y="14"/></symbol><symbol viewBox="0 0 24 24" id="next"><path d="M17 11.5L6 18V5z"/><path d="M18 18V5"/></symbol><symbol viewBox="0 0 24 24" id="previous"><path d="M7 11.5L18 18V5z"/><path d="M6 18V5"/></symbol><symbol viewBox="0 0 24 24" id="add-to-list"><path d="M6 10H18"/><path d="M6 6H18"/><path d="M6 14H10"/><path d="M14 16H18"/><path d="M16 14L16 18"/><path d="M6 18H10"/></symbol><symbol viewBox="0 0 24 24" id="add"><path d="M17 12L7 12M12 17L12 7"/><circle cx="12" cy="12" r="10"/></symbol><symbol viewBox="0 0 24 24" id="pause"><rect width="4" height="16" x="5" y="4"/><rect width="4" height="16" x="15" y="4"/></symbol><symbol viewBox="0 0 24 24" id="play"><path d="M20 12L5 21V3z"/></symbol></svg>